<svg width="512" height="512" viewBox="0 0 512 512" fill="none" xmlns="http://www.w3.org/2000/svg">
<path d="M95.7369 232.141L57.4411 239.233C56.7485 239.361 56.402 240.146 56.774 240.745L81.1263 279.899C81.3503 280.259 81.7769 280.439 82.1909 280.348L114.285 273.268C114.909 273.13 115.246 272.451 114.977 271.871L96.8263 232.704C96.6343 232.29 96.186 232.058 95.7369 232.141Z" fill="url(#paint0_linear_804_246)"/>
<path d="M215.941 181.084L174.742 150.424C174.159 149.991 173.324 150.303 173.168 151.011L163.653 194.306C163.561 194.721 163.743 195.149 164.106 195.372L203.887 219.816C204.448 220.161 205.183 219.878 205.37 219.247L216.303 182.169C216.421 181.767 216.277 181.334 215.941 181.084Z" fill="url(#paint1_linear_804_246)"/>
<path d="M295.114 171.599L332.203 147.348C332.811 146.951 333.626 147.314 333.738 148.032L341.401 197.364C341.461 197.751 341.29 198.138 340.962 198.353L309.142 219.25C308.576 219.621 307.813 219.336 307.63 218.685L294.699 172.706C294.58 172.286 294.749 171.837 295.114 171.599Z" fill="url(#paint2_linear_804_246)"/>
<path d="M417.262 232.609L457.009 238.287C457.717 238.388 458.093 239.178 457.725 239.791L433.353 280.412C433.14 280.766 432.731 280.953 432.324 280.882L399.741 275.216C399.106 275.105 398.74 274.433 398.991 273.841L416.2 233.209C416.377 232.791 416.813 232.545 417.262 232.609Z" fill="url(#paint3_linear_804_246)"/>
<path d="M214.999 243C212.999 188.5 241.165 151.5 255.499 140C295.098 176.4 295.499 224 296.999 243C299.799 295.8 270.499 335.667 255.499 349C215.898 306.6 214.5 261 214.999 243Z" fill="url(#paint4_linear_804_246)"/>
<path d="M47 309C81.4 286.6 113 283.667 124.5 285C156.9 327.8 211.5 350 241 352C147.5 403.5 69.6667 343.667 47 309Z" fill="url(#paint5_linear_804_246)"/>
<path d="M464 309.854C429.6 287.454 398 284.521 386.5 285.854C354.1 328.654 299.5 350.854 270 352.854C363.5 404.354 441.333 344.521 464 309.854Z" fill="url(#paint6_linear_804_246)"/>
<path d="M190.5 222.5C156.5 195.7 119 192.333 104.5 194C102.9 227.6 118.833 257.667 127 268.5C170.2 328.1 216 339.667 233.5 338C212.3 309.6 206 276.5 205.5 263.5C206.7 239.5 196 226.167 190.5 222.5Z" fill="url(#paint7_linear_804_246)"/>
<path d="M320.5 223.355C354.5 196.555 392 193.188 406.5 194.855C408.1 228.455 392.167 258.521 384 269.354C340.8 328.954 295 340.521 277.5 338.854C298.7 310.454 305 277.354 305.5 264.354C304.3 240.354 315 227.021 320.5 223.355Z" fill="url(#paint8_linear_804_246)"/>
<defs>
<linearGradient id="paint0_linear_804_246" x1="56" y1="231.5" x2="116" y2="280.5" gradientUnits="userSpaceOnUse">
<stop stop-color="#0D9C60"/>
<stop offset="1" stop-color="#0D9C9C"/>
</linearGradient>
<linearGradient id="paint1_linear_804_246" x1="169" y1="164" x2="229" y2="213" gradientUnits="userSpaceOnUse">
<stop stop-color="#0D9C60"/>
<stop offset="1" stop-color="#0D9C9C"/>
</linearGradient>
<linearGradient id="paint2_linear_804_246" x1="338.5" y1="148" x2="278.5" y2="197" gradientUnits="userSpaceOnUse">
<stop stop-color="#0D9C60"/>
<stop offset="1" stop-color="#0D9C9C"/>
</linearGradient>
<linearGradient id="paint3_linear_804_246" x1="447" y1="202" x2="387" y2="251" gradientUnits="userSpaceOnUse">
<stop stop-color="#0D9C60"/>
<stop offset="1" stop-color="#0D9C9C"/>
</linearGradient>
<linearGradient id="paint4_linear_804_246" x1="214.207" y1="139.451" x2="314.538" y2="147.735" gradientUnits="userSpaceOnUse">
<stop stop-color="#D24DB4"/>
<stop offset="1" stop-color="#CF3FAF"/>
</linearGradient>
<linearGradient id="paint5_linear_804_246" x1="47" y1="284.5" x2="240" y2="372.5" gradientUnits="userSpaceOnUse">
<stop stop-color="#D24DB4"/>
<stop offset="1" stop-color="#CF3FAF"/>
</linearGradient>
<linearGradient id="paint6_linear_804_246" x1="464" y1="285.354" x2="271" y2="373.354" gradientUnits="userSpaceOnUse">
<stop stop-color="#D24DB4"/>
<stop offset="1" stop-color="#CF3FAF"/>
</linearGradient>
<linearGradient id="paint7_linear_804_246" x1="104.388" y1="193.266" x2="255.581" y2="221.213" gradientUnits="userSpaceOnUse">
<stop stop-color="#D24DB4"/>
<stop offset="1" stop-color="#CF3FAF"/>
</linearGradient>
<linearGradient id="paint8_linear_804_246" x1="406.612" y1="194.12" x2="255.419" y2="222.067" gradientUnits="userSpaceOnUse">
<stop stop-color="#D24DB4"/>
<stop offset="1" stop-color="#CF3FAF"/>
</linearGradient>
</defs>
</svg>
